<svg 
 xmlns="http://www.w3.org/2000/svg"
 xmlns:xlink="http://www.w3.org/1999/xlink"
 width="100px" height="98px">
<path fill-rule="evenodd"  fill="rgb(255, 255, 255)"
 d="M83.841,72.381 L49.119,72.381 L49.119,81.985 C49.119,90.816 41.871,98.000 32.960,98.000 L16.159,98.000 C7.248,98.000 -0.000,90.816 -0.000,81.985 L-0.000,65.333 C-0.000,56.501 7.248,49.317 16.159,49.317 L26.970,49.317 L26.970,16.015 C26.970,7.184 34.218,-0.000 43.129,-0.000 L83.841,-0.000 C92.752,-0.000 100.000,7.184 100.000,16.015 L100.000,56.366 C100.000,65.197 92.752,72.381 83.841,72.381 ZM96.409,16.015 C96.409,9.146 90.772,3.559 83.841,3.559 L43.129,3.559 C36.198,3.559 30.561,9.146 30.561,16.015 L30.561,51.097 C30.561,52.079 29.756,52.876 28.765,52.876 L16.159,52.876 C9.228,52.876 3.591,58.464 3.591,65.333 L3.591,81.985 C3.591,88.854 9.228,94.441 16.159,94.441 L32.960,94.441 C39.891,94.441 45.528,88.854 45.528,81.985 L45.528,70.601 C45.528,69.619 46.333,68.822 47.324,68.822 L83.841,68.822 C90.772,68.822 96.409,63.235 96.409,56.366 L96.409,16.015 ZM67.791,41.903 C66.800,41.903 65.996,41.106 65.996,40.123 L65.996,36.997 L24.203,76.980 C23.855,77.314 23.405,77.480 22.956,77.480 C22.486,77.480 22.016,77.298 21.664,76.936 C20.976,76.228 20.996,75.102 21.709,74.420 L63.346,34.586 L60.242,34.586 C59.251,34.586 58.447,33.789 58.447,32.806 C58.447,31.824 59.251,31.027 60.242,31.027 L67.791,31.027 C67.957,31.027 68.114,31.056 68.266,31.098 C68.303,31.108 68.338,31.119 68.374,31.131 C68.523,31.182 68.667,31.245 68.795,31.331 C68.795,31.331 68.795,31.331 68.795,31.331 C68.925,31.418 69.037,31.526 69.139,31.642 C69.164,31.671 69.187,31.698 69.210,31.728 C69.307,31.852 69.391,31.986 69.451,32.133 C69.452,32.136 69.455,32.138 69.456,32.140 C69.459,32.149 69.459,32.158 69.462,32.167 C69.515,32.302 69.547,32.445 69.565,32.593 C69.570,32.633 69.575,32.671 69.577,32.711 C69.579,32.743 69.587,32.774 69.587,32.806 L69.587,40.123 C69.587,41.106 68.782,41.903 67.791,41.903 Z"/>
</svg>