<svg 
 xmlns="http://www.w3.org/2000/svg"
 xmlns:xlink="http://www.w3.org/1999/xlink"
 width="111px" height="78px">
<path fill-rule="evenodd"  fill="rgb(255, 255, 255)"
 d="M36.884,77.996 C24.286,77.996 14.603,74.086 8.106,66.373 C-0.417,56.255 -0.429,43.070 0.286,38.844 L0.428,38.002 C0.544,37.324 1.131,36.829 1.819,36.829 L74.622,36.829 C77.307,36.867 79.435,36.301 80.752,35.798 C79.743,33.709 79.389,31.609 79.264,30.415 C78.908,26.062 79.995,21.520 82.167,18.234 L83.735,15.875 C83.943,15.563 84.266,15.347 84.634,15.273 C85.003,15.201 85.383,15.276 85.694,15.483 L88.042,17.053 C88.069,17.071 88.096,17.090 88.123,17.110 C92.033,20.143 94.385,23.498 95.273,27.330 C99.319,26.856 104.478,27.362 107.165,29.164 L109.400,30.659 C109.983,31.048 110.191,31.807 109.888,32.440 L109.508,33.231 C108.755,34.796 108.533,35.210 108.417,35.409 C104.346,43.211 96.658,43.707 92.829,43.711 C83.314,65.831 63.486,77.996 36.884,77.996 ZM3.015,39.648 C2.421,43.836 2.645,55.512 10.264,64.558 C16.200,71.604 25.156,75.177 36.884,75.177 C62.620,75.177 81.695,63.305 90.594,41.750 C90.813,41.222 91.328,40.878 91.898,40.878 C91.908,40.878 91.917,40.878 91.927,40.878 C96.743,40.990 102.692,40.284 105.949,34.045 C106.054,33.861 106.264,33.461 106.815,32.322 L105.596,31.506 C105.596,31.506 105.594,31.506 105.594,31.505 C103.543,30.131 98.311,29.572 94.395,30.312 C94.020,30.385 93.623,30.297 93.309,30.070 C92.995,29.845 92.788,29.500 92.736,29.117 C92.239,25.472 90.177,22.283 86.432,19.368 L85.302,18.612 L84.519,19.790 C82.685,22.565 81.770,26.441 82.073,30.155 C82.197,31.337 82.605,33.672 83.915,35.679 C84.130,36.009 84.197,36.415 84.100,36.797 C84.003,37.178 83.749,37.502 83.402,37.689 C82.257,38.306 79.117,39.712 74.596,39.648 L3.015,39.648 ZM69.570,33.423 L61.691,33.423 C60.912,33.423 60.281,32.792 60.281,32.014 L60.281,24.831 C60.281,24.052 60.912,23.421 61.691,23.421 L69.570,23.421 C70.349,23.421 70.981,24.052 70.981,24.831 L70.981,32.014 C70.981,32.792 70.349,33.423 69.570,33.423 ZM63.102,30.605 L68.159,30.605 L68.159,26.240 L63.102,26.240 L63.102,30.605 ZM56.877,33.423 L48.998,33.423 C48.219,33.423 47.587,32.792 47.587,32.014 L47.587,24.831 C47.587,24.052 48.219,23.421 48.998,23.421 L56.877,23.421 C57.656,23.421 58.287,24.052 58.287,24.831 L58.287,32.014 C58.287,32.792 57.656,33.423 56.877,33.423 ZM50.409,30.605 L55.466,30.605 L55.466,26.240 L50.409,26.240 L50.409,30.605 ZM44.184,33.423 L36.305,33.423 C35.526,33.423 34.894,32.792 34.894,32.014 L34.894,24.831 C34.894,24.052 35.526,23.421 36.305,23.421 L44.184,23.421 C44.963,23.421 45.594,24.052 45.594,24.831 L45.594,32.014 C45.594,32.792 44.963,33.423 44.184,33.423 ZM37.715,30.605 L42.773,30.605 L42.773,26.240 L37.715,26.240 L37.715,30.605 ZM31.490,33.423 L23.612,33.423 C22.833,33.423 22.201,32.792 22.201,32.014 L22.201,24.831 C22.201,24.052 22.833,23.421 23.612,23.421 L31.490,23.421 C32.269,23.421 32.900,24.052 32.900,24.831 L32.900,32.014 C32.900,32.792 32.269,33.423 31.490,33.423 ZM25.022,30.605 L30.079,30.605 L30.079,26.240 L25.022,26.240 L25.022,30.605 ZM18.796,33.423 L10.918,33.423 C10.139,33.423 9.507,32.792 9.507,32.014 L9.507,24.831 C9.507,24.052 10.139,23.421 10.918,23.421 L18.796,23.421 C19.575,23.421 20.207,24.052 20.207,24.831 L20.207,32.014 C20.207,32.792 19.575,33.423 18.796,33.423 ZM12.329,30.605 L17.386,30.605 L17.386,26.240 L12.329,26.240 L12.329,30.605 ZM56.877,21.714 L48.998,21.714 C48.219,21.714 47.587,21.083 47.587,20.305 L47.587,13.122 C47.587,12.344 48.219,11.713 48.998,11.713 L56.877,11.713 C57.656,11.713 58.287,12.344 58.287,13.122 L58.287,20.305 C58.287,21.083 57.656,21.714 56.877,21.714 ZM50.409,18.895 L55.466,18.895 L55.466,14.532 L50.409,14.532 L50.409,18.895 ZM44.184,21.714 L36.305,21.714 C35.526,21.714 34.894,21.083 34.894,20.305 L34.894,13.122 C34.894,12.344 35.526,11.713 36.305,11.713 L44.184,11.713 C44.963,11.713 45.594,12.344 45.594,13.122 L45.594,20.305 C45.594,21.083 44.963,21.714 44.184,21.714 ZM37.715,18.895 L42.773,18.895 L42.773,14.532 L37.715,14.532 L37.715,18.895 ZM31.490,21.714 L23.612,21.714 C22.833,21.714 22.201,21.083 22.201,20.305 L22.201,13.122 C22.201,12.344 22.833,11.713 23.612,11.713 L31.490,11.713 C32.269,11.713 32.900,12.344 32.900,13.122 L32.900,20.305 C32.900,21.083 32.269,21.714 31.490,21.714 ZM25.022,18.895 L30.079,18.895 L30.079,14.532 L25.022,14.532 L25.022,18.895 ZM56.877,10.005 L48.998,10.005 C48.219,10.005 47.587,9.374 47.587,8.596 L47.587,1.413 C47.587,0.635 48.219,0.004 48.998,0.004 L56.877,0.004 C57.656,0.004 58.287,0.635 58.287,1.413 L58.287,8.596 C58.287,9.374 57.656,10.005 56.877,10.005 ZM50.409,7.186 L55.466,7.186 L55.466,2.823 L50.409,2.823 L50.409,7.186 Z"/>
</svg>