<svg 
 xmlns="http://www.w3.org/2000/svg"
 xmlns:xlink="http://www.w3.org/1999/xlink"
 width="110px" height="88px">
<path fill-rule="evenodd"  fill="rgb(255, 255, 255)"
 d="M104.965,86.616 C102.134,87.508 98.394,88.000 94.432,88.000 C90.470,88.000 86.729,87.508 83.899,86.616 C79.737,85.303 78.864,83.539 78.864,82.290 L78.864,70.487 C78.864,69.238 79.737,67.473 83.899,66.161 C86.729,65.268 90.470,64.776 94.432,64.776 C98.394,64.776 102.134,65.268 104.965,66.161 C109.126,67.473 110.000,69.238 110.000,70.487 L110.000,82.290 C110.000,83.539 109.126,85.303 104.965,86.616 ZM104.257,68.391 C101.650,67.569 98.160,67.116 94.432,67.116 C90.703,67.116 87.214,67.569 84.606,68.391 C81.819,69.270 81.209,70.202 81.209,70.487 C81.209,70.771 81.819,71.703 84.606,72.582 C87.214,73.404 90.703,73.858 94.432,73.858 C98.160,73.858 101.650,73.404 104.257,72.582 C107.044,71.703 107.655,70.771 107.655,70.487 C107.655,70.202 107.044,69.270 104.257,68.391 ZM107.655,73.674 C106.964,74.073 106.084,74.459 104.965,74.813 C102.134,75.705 98.394,76.197 94.432,76.197 C90.470,76.197 86.729,75.705 83.899,74.813 C82.779,74.459 81.900,74.073 81.209,73.674 L81.209,82.290 C81.209,82.575 81.819,83.506 84.606,84.385 C87.214,85.208 90.703,85.661 94.432,85.661 C98.160,85.661 101.650,85.208 104.257,84.385 C107.044,83.506 107.655,82.575 107.655,82.290 L107.655,73.674 ZM94.432,61.763 C93.784,61.763 93.259,61.239 93.259,60.594 L93.259,56.897 L56.249,56.897 L56.249,60.594 C56.249,61.239 55.724,61.763 55.077,61.763 C54.429,61.763 53.904,61.239 53.904,60.594 L53.904,56.897 L16.741,56.897 L16.741,60.594 C16.741,61.239 16.216,61.763 15.568,61.763 C14.920,61.763 14.396,61.239 14.396,60.594 L14.396,55.728 C14.396,55.082 14.920,54.558 15.568,54.558 L53.904,54.558 L53.904,50.651 C53.904,50.005 54.429,49.482 55.077,49.482 C55.724,49.482 56.249,50.005 56.249,50.651 L56.249,54.558 L94.432,54.558 C95.079,54.558 95.605,55.082 95.605,55.728 L95.605,60.594 C95.605,61.239 95.079,61.763 94.432,61.763 ZM65.609,45.407 C62.779,46.300 59.038,46.791 55.077,46.791 C51.115,46.791 47.374,46.300 44.544,45.407 C40.382,44.094 39.508,42.330 39.508,41.081 L39.508,5.710 C39.508,4.461 40.382,2.697 44.544,1.384 C47.374,0.492 51.115,0.000 55.077,0.000 C59.038,0.000 62.779,0.492 65.609,1.384 C69.771,2.697 70.645,4.461 70.645,5.710 L70.645,41.081 C70.645,42.330 69.771,44.094 65.609,45.407 ZM64.902,3.615 C62.294,2.792 58.805,2.339 55.077,2.339 C51.348,2.339 47.859,2.792 45.251,3.615 C42.464,4.494 41.854,5.426 41.854,5.710 C41.854,5.995 42.464,6.927 45.251,7.806 C47.859,8.628 51.348,9.081 55.077,9.081 C58.805,9.081 62.294,8.628 64.902,7.806 C67.689,6.927 68.299,5.995 68.299,5.710 C68.299,5.426 67.689,4.494 64.902,3.615 ZM68.299,8.897 C67.609,9.297 66.729,9.683 65.609,10.036 C62.779,10.929 59.038,11.421 55.077,11.421 C51.115,11.421 47.374,10.929 44.544,10.036 C43.424,9.683 42.544,9.297 41.854,8.897 L41.854,17.291 C41.854,17.576 42.464,18.508 45.251,19.387 C47.859,20.209 51.348,20.662 55.077,20.662 C58.805,20.662 62.294,20.209 64.902,19.387 C67.689,18.508 68.299,17.576 68.299,17.291 L68.299,8.897 ZM68.299,20.478 C67.609,20.878 66.729,21.264 65.609,21.617 C62.779,22.510 59.038,23.001 55.077,23.001 C51.115,23.001 47.374,22.510 44.544,21.617 C43.424,21.264 42.544,20.878 41.854,20.478 L41.854,29.105 C41.854,29.390 42.464,30.321 45.251,31.200 C47.859,32.023 51.348,32.476 55.077,32.476 C58.805,32.476 62.294,32.023 64.902,31.200 C67.689,30.321 68.299,29.390 68.299,29.105 L68.299,20.478 ZM68.299,32.292 C67.609,32.692 66.729,33.078 65.609,33.431 C62.779,34.324 59.038,34.815 55.077,34.815 C51.115,34.815 47.374,34.324 44.544,33.431 C43.424,33.078 42.544,32.692 41.854,32.292 L41.854,41.081 C41.854,41.366 42.464,42.298 45.251,43.177 C47.859,43.999 51.348,44.452 55.077,44.452 C58.805,44.452 62.294,43.999 64.902,43.177 C67.689,42.298 68.299,41.366 68.299,41.081 L68.299,32.292 ZM26.101,66.161 C30.263,67.473 31.136,69.238 31.136,70.487 L31.136,82.290 C31.136,83.539 30.263,85.303 26.101,86.616 C23.271,87.508 19.530,88.000 15.568,88.000 C11.606,88.000 7.866,87.508 5.035,86.616 C0.874,85.303 -0.000,83.539 -0.000,82.290 L-0.000,70.487 C-0.000,69.238 0.874,67.473 5.035,66.161 C7.866,65.268 11.606,64.776 15.568,64.776 C19.530,64.776 23.271,65.268 26.101,66.161 ZM2.345,82.290 C2.345,82.575 2.956,83.506 5.743,84.385 C8.350,85.208 11.840,85.661 15.568,85.661 C19.297,85.661 22.786,85.208 25.394,84.385 C28.181,83.506 28.791,82.575 28.791,82.290 L28.791,73.674 C28.100,74.073 27.221,74.459 26.101,74.813 C23.271,75.705 19.530,76.197 15.568,76.197 C11.606,76.197 7.866,75.705 5.035,74.813 C3.916,74.459 3.036,74.073 2.345,73.674 L2.345,82.290 ZM2.345,70.487 C2.345,70.771 2.956,71.703 5.743,72.582 C8.350,73.404 11.840,73.858 15.568,73.858 C19.297,73.858 22.786,73.404 25.394,72.582 C28.181,71.703 28.791,70.771 28.791,70.487 C28.791,70.202 28.181,69.270 25.394,68.391 C22.786,67.569 19.297,67.116 15.568,67.116 C11.840,67.116 8.350,67.569 5.743,68.391 C2.956,69.270 2.345,70.202 2.345,70.487 ZM44.544,66.161 C47.374,65.268 51.115,64.776 55.077,64.776 C59.038,64.776 62.779,65.268 65.609,66.161 C69.771,67.473 70.645,69.238 70.645,70.487 L70.645,82.290 C70.645,83.539 69.771,85.303 65.609,86.616 C62.779,87.508 59.038,88.000 55.077,88.000 C51.115,88.000 47.374,87.508 44.544,86.616 C40.382,85.303 39.508,83.539 39.508,82.290 L39.508,70.487 C39.508,69.238 40.382,67.473 44.544,66.161 ZM41.854,82.290 C41.854,82.575 42.464,83.506 45.251,84.385 C47.859,85.208 51.348,85.661 55.077,85.661 C58.805,85.661 62.294,85.208 64.902,84.385 C67.689,83.506 68.299,82.575 68.299,82.290 L68.299,73.674 C67.609,74.073 66.729,74.459 65.609,74.813 C62.779,75.705 59.038,76.197 55.077,76.197 C51.115,76.197 47.374,75.705 44.544,74.813 C43.424,74.459 42.544,74.073 41.854,73.674 L41.854,82.290 ZM45.251,72.582 C47.859,73.404 51.348,73.858 55.077,73.858 C58.805,73.858 62.294,73.404 64.902,72.582 C67.689,71.703 68.299,70.771 68.299,70.487 C68.299,70.202 67.689,69.270 64.902,68.391 C62.294,67.569 58.805,67.116 55.077,67.116 C51.348,67.116 47.859,67.569 45.251,68.391 C42.464,69.270 41.854,70.202 41.854,70.487 C41.854,70.771 42.464,71.703 45.251,72.582 Z"/>
</svg>