<svg 
 xmlns="http://www.w3.org/2000/svg"
 xmlns:xlink="http://www.w3.org/1999/xlink"
 width="470px" height="346px">
<path fill-rule="evenodd"  fill="rgb(255, 255, 255)"
 d="M441.805,319.100 L404.807,319.100 L404.807,336.494 C404.807,341.719 400.568,345.970 395.359,345.970 L376.460,345.970 L232.567,345.970 L214.251,345.970 C214.152,345.985 214.054,346.000 213.951,346.000 L156.527,346.000 L127.376,346.000 L9.448,346.000 C4.239,346.000 0.000,341.750 0.000,336.525 L0.000,300.891 C0.000,296.260 3.332,292.402 7.716,291.583 L7.716,281.742 C3.332,280.923 0.000,277.065 0.000,272.434 L0.000,236.800 C0.000,232.169 3.332,228.311 7.716,227.492 L7.716,217.259 C3.332,216.440 0.000,212.581 0.000,207.950 L0.000,172.317 C0.000,167.686 3.332,163.828 7.716,163.009 L7.716,153.794 C3.332,152.975 0.000,149.116 0.000,144.485 L0.000,108.852 C0.000,103.627 4.239,99.376 9.448,99.376 L20.567,99.376 C20.737,95.693 21.634,87.318 26.055,78.447 C28.128,74.287 31.162,69.726 35.571,65.517 C35.488,65.441 35.403,65.368 35.322,65.290 C31.678,61.819 29.830,57.167 29.830,51.462 C29.830,36.020 38.742,30.457 44.683,29.349 C45.084,23.904 47.841,7.234 66.387,1.402 C84.842,-4.402 97.216,9.344 100.955,14.294 C105.181,11.440 116.833,5.621 130.831,15.943 C136.000,19.755 138.782,24.139 140.129,28.439 C141.724,28.758 145.736,29.750 149.774,32.245 C156.664,36.504 160.306,43.069 160.306,51.231 C160.306,71.119 138.937,71.850 138.721,71.855 L91.041,71.856 C90.101,80.014 91.406,87.155 94.971,93.167 C96.378,95.539 98.059,97.593 99.870,99.376 L117.927,99.376 L117.927,91.654 C117.927,86.429 122.166,82.179 127.376,82.179 L204.220,82.179 L204.220,81.796 C204.220,76.571 208.459,72.321 213.669,72.321 L232.567,72.321 L376.460,72.321 L395.359,72.321 C400.568,72.321 404.807,76.571 404.807,81.796 L404.807,122.350 C404.807,126.927 401.556,130.754 397.248,131.635 L397.248,143.893 C401.556,144.774 404.807,148.601 404.807,153.178 L404.807,177.160 C405.128,177.276 405.450,177.394 405.774,177.516 C421.148,183.324 432.169,194.028 437.647,208.472 C442.483,221.221 441.618,234.681 435.196,247.718 C439.413,251.977 441.886,256.582 443.209,261.104 C447.062,261.865 470.000,267.423 470.000,291.622 C470.000,318.118 442.087,319.093 441.805,319.100 ZM395.359,342.180 C398.484,342.180 401.028,339.629 401.028,336.494 L401.028,319.100 L385.908,319.100 L385.908,336.494 C385.908,338.629 385.193,340.594 384.001,342.180 L395.359,342.180 ZM207.999,317.679 C207.999,317.679 207.999,317.680 207.999,317.680 L207.999,336.494 C207.999,339.629 210.543,342.180 213.669,342.180 L232.567,342.180 L376.460,342.180 C379.586,342.180 382.129,339.629 382.129,336.494 L382.129,319.100 L362.060,319.100 L354.479,326.703 C354.110,327.073 353.626,327.258 353.143,327.258 C352.659,327.258 352.176,327.073 351.807,326.703 C351.069,325.963 351.069,324.763 351.807,324.023 L356.716,319.100 L348.052,319.101 L340.667,326.506 C340.299,326.876 339.815,327.061 339.331,327.061 C338.848,327.061 338.364,326.876 337.995,326.506 C337.257,325.766 337.257,324.566 337.995,323.826 L342.708,319.101 L334.089,319.101 L326.705,326.506 C326.336,326.876 325.852,327.061 325.369,327.061 C324.885,327.061 324.402,326.876 324.033,326.506 C323.295,325.766 323.295,324.566 324.033,323.826 L328.733,319.112 C326.926,319.069 324.196,318.892 321.077,318.312 L312.907,326.506 C312.538,326.876 312.054,327.061 311.571,327.061 C311.087,327.061 310.603,326.876 310.234,326.506 C309.496,325.766 309.496,324.566 310.234,323.826 L316.758,317.284 C314.740,316.690 312.669,315.904 310.661,314.874 L299.062,326.506 C298.694,326.876 298.210,327.061 297.726,327.061 C297.243,327.061 296.759,326.876 296.390,326.506 C295.652,325.766 295.652,324.566 296.390,323.826 L307.319,312.866 C306.311,312.159 305.336,311.379 304.419,310.506 C303.878,309.991 303.372,309.454 302.891,308.900 L285.336,326.506 C284.967,326.876 284.483,327.061 284.000,327.061 C283.516,327.061 283.033,326.876 282.664,326.506 C281.926,325.766 281.926,324.566 282.664,323.826 L300.633,305.805 C298.285,301.919 297.096,297.278 297.096,291.938 C297.096,291.363 297.112,290.808 297.129,290.255 L232.567,290.255 L213.968,290.255 C213.870,290.271 213.771,290.285 213.669,290.285 L213.084,290.285 C210.232,290.579 207.999,293.003 207.999,295.940 L207.999,317.679 ZM310.234,253.814 L324.265,239.742 C328.376,233.672 334.949,227.602 345.440,224.226 C357.555,220.328 369.547,222.507 380.121,230.527 C380.819,231.057 381.488,231.594 382.129,232.135 L382.129,224.559 C382.129,221.424 379.586,218.874 376.460,218.874 L232.567,218.874 L213.669,218.874 C210.543,218.874 207.999,221.424 207.999,224.559 L207.999,265.113 C207.999,268.248 210.543,270.798 213.669,270.798 L303.227,270.798 C307.863,264.875 313.915,262.985 316.864,262.400 C316.975,260.048 317.428,255.489 319.165,250.217 L312.907,256.493 C312.538,256.863 312.054,257.048 311.571,257.048 C311.087,257.048 310.603,256.863 310.234,256.493 C309.496,255.754 309.496,254.553 310.234,253.814 ZM393.469,215.083 L393.469,203.207 L378.350,203.207 L378.350,215.083 L393.469,215.083 ZM384.001,218.874 C385.193,220.460 385.908,222.424 385.908,224.559 L385.908,235.658 C388.387,238.200 390.189,240.537 391.269,242.062 C393.155,240.676 396.524,238.578 401.028,237.258 L401.028,224.559 C401.028,221.424 398.484,218.874 395.359,218.874 L384.001,218.874 ZM382.129,153.178 C382.129,150.043 379.586,147.492 376.460,147.492 L232.567,147.492 L213.669,147.492 C210.543,147.492 207.999,150.043 207.999,153.178 L207.999,193.732 C207.999,196.867 210.543,199.417 213.669,199.417 L232.567,199.417 L376.460,199.417 C379.586,199.417 382.129,196.867 382.129,193.732 L382.129,153.178 ZM393.469,143.702 L393.469,131.826 L378.350,131.826 L378.350,143.702 L393.469,143.702 ZM374.571,143.702 L374.571,131.826 L232.567,131.826 L216.051,131.826 L216.051,143.702 L232.567,143.702 L374.571,143.702 ZM163.802,150.523 L204.605,150.523 C205.625,147.024 208.607,144.366 212.272,143.818 L212.272,141.684 L165.975,141.684 L165.975,144.485 C165.975,146.778 165.158,148.882 163.802,150.523 ZM127.376,154.313 C124.250,154.313 121.707,156.863 121.707,159.999 L121.707,200.553 C121.707,203.688 124.250,206.238 127.376,206.238 L212.272,206.238 L212.272,203.092 C207.724,202.411 204.220,198.480 204.220,193.732 L204.220,186.282 L199.043,191.474 C198.675,191.844 198.191,192.029 197.707,192.029 C197.224,192.029 196.740,191.844 196.371,191.474 C195.633,190.734 195.633,189.534 196.371,188.794 L204.220,180.923 L204.220,172.437 L193.138,183.551 C192.769,183.921 192.286,184.106 191.802,184.106 C191.319,184.106 190.835,183.921 190.466,183.551 C189.728,182.812 189.728,181.611 190.466,180.871 L202.276,169.027 C202.802,168.499 203.560,168.355 204.220,168.580 L204.220,154.313 L127.376,154.313 ZM162.196,144.485 L162.196,141.684 L129.547,141.684 L129.547,150.170 L156.527,150.170 C159.652,150.170 162.196,147.620 162.196,144.485 ZM127.376,274.935 L212.272,274.935 L212.272,274.473 C207.724,273.792 204.220,269.861 204.220,265.113 L204.220,254.979 L199.043,260.171 C198.675,260.541 198.191,260.726 197.707,260.726 C197.224,260.726 196.740,260.541 196.371,260.171 C195.633,259.431 195.633,258.230 196.371,257.491 L204.220,249.619 L204.220,241.134 L193.138,252.248 C192.769,252.618 192.286,252.803 191.802,252.803 C191.319,252.803 190.835,252.618 190.466,252.248 C189.728,251.508 189.728,250.308 190.466,249.568 L202.276,237.724 C202.802,237.196 203.560,237.052 204.220,237.277 L204.220,224.559 C204.220,224.030 204.274,223.515 204.358,223.010 L127.376,223.010 C124.250,223.010 121.707,225.560 121.707,228.695 L121.707,269.249 C121.707,272.384 124.250,274.935 127.376,274.935 ZM11.495,281.909 L11.495,291.416 L119.095,291.416 C120.455,288.937 122.892,287.140 125.767,286.643 L125.767,281.909 L11.495,281.909 ZM129.547,278.725 L129.547,286.495 L212.272,286.495 L212.272,278.725 L129.547,278.725 ZM212.272,215.199 L212.272,210.028 L129.547,210.028 L129.547,219.220 L205.870,219.220 C207.323,217.092 209.620,215.596 212.272,215.199 ZM125.767,219.367 L125.767,217.426 L11.495,217.426 L11.495,227.325 L118.038,227.325 C118.626,223.278 121.766,220.060 125.767,219.367 ZM216.051,203.207 L216.051,215.083 L232.567,215.083 L374.571,215.083 L374.571,203.207 L232.567,203.207 L216.051,203.207 ZM216.051,274.588 L216.051,286.465 L232.567,286.465 L297.393,286.465 C297.928,281.601 299.163,277.704 300.792,274.588 L216.051,274.588 ZM121.707,336.525 C121.707,339.660 124.250,342.210 127.376,342.210 L156.527,342.210 L206.150,342.210 C204.945,340.619 204.220,338.642 204.220,336.494 L204.220,322.254 L199.043,327.445 C198.675,327.815 198.191,328.000 197.707,328.000 C197.223,328.000 196.740,327.815 196.371,327.445 C195.633,326.705 195.633,325.505 196.371,324.766 L204.220,316.895 L204.220,308.409 L193.138,319.523 C192.769,319.893 192.286,320.078 191.802,320.078 C191.319,320.078 190.835,319.893 190.466,319.523 C189.728,318.784 189.728,317.583 190.466,316.843 L202.276,304.999 C202.802,304.471 203.560,304.327 204.220,304.552 L204.220,295.940 C204.220,293.819 204.927,291.866 206.105,290.285 L127.376,290.285 C124.250,290.285 121.707,292.835 121.707,295.970 L121.707,336.525 ZM3.779,300.891 L3.779,336.525 C3.779,339.660 6.323,342.210 9.448,342.210 L119.835,342.210 C118.643,340.624 117.927,338.659 117.927,336.525 L117.927,323.042 L111.952,329.035 C111.583,329.405 111.099,329.590 110.616,329.590 C110.132,329.590 109.648,329.405 109.280,329.035 C108.541,328.295 108.541,327.095 109.280,326.355 L117.927,317.683 L117.927,310.427 L99.372,329.035 C99.003,329.405 98.519,329.590 98.036,329.590 C97.552,329.590 97.069,329.405 96.699,329.035 C95.962,328.295 95.962,327.095 96.700,326.355 L115.459,307.543 C116.133,306.865 117.187,306.816 117.927,307.376 L117.927,295.970 C117.927,295.712 117.946,295.459 117.966,295.206 L9.448,295.206 C6.323,295.206 3.779,297.756 3.779,300.891 ZM3.779,236.800 L3.779,272.434 C3.779,275.569 6.323,278.119 9.448,278.119 L124.082,278.119 C120.494,276.774 117.927,273.311 117.927,269.249 L117.927,258.952 L111.952,264.945 C111.583,265.315 111.099,265.500 110.616,265.500 C110.132,265.500 109.648,265.315 109.280,264.945 C108.541,264.205 108.541,263.005 109.280,262.265 L117.927,253.592 L117.927,246.336 L99.372,264.945 C99.003,265.315 98.519,265.500 98.036,265.500 C97.552,265.500 97.069,265.315 96.699,264.945 C95.962,264.205 95.962,263.005 96.700,262.265 L115.459,243.452 C116.133,242.775 117.187,242.725 117.927,243.285 L117.927,231.115 L9.448,231.115 C6.323,231.115 3.779,233.665 3.779,236.800 ZM3.779,172.317 L3.779,207.950 C3.779,211.085 6.323,213.636 9.448,213.636 L125.767,213.636 L125.767,209.880 C121.323,209.111 117.927,205.227 117.927,200.553 L117.927,194.469 L111.952,200.461 C111.583,200.832 111.099,201.017 110.616,201.017 C110.132,201.017 109.648,200.832 109.280,200.461 C108.541,199.722 108.541,198.521 109.280,197.782 L117.927,189.109 L117.927,181.853 L99.372,200.461 C99.003,200.832 98.519,201.017 98.036,201.017 C97.552,201.017 97.069,200.832 96.699,200.461 C95.962,199.722 95.962,198.521 96.700,197.782 L115.459,178.969 C116.133,178.292 117.187,178.242 117.927,178.802 L117.927,166.632 L39.840,166.632 L9.448,166.632 C6.323,166.632 3.779,169.182 3.779,172.317 ZM120.100,153.960 L11.495,153.960 L11.495,162.842 L39.840,162.842 L117.927,162.842 L117.927,159.999 C117.927,157.706 118.744,155.601 120.100,153.960 ZM92.412,54.522 C92.920,54.215 93.543,54.167 94.093,54.389 C94.643,54.611 95.056,55.080 95.211,55.654 L97.294,63.433 C97.565,64.444 96.967,65.483 95.959,65.755 C95.795,65.799 95.630,65.820 95.468,65.820 C94.634,65.820 93.871,65.262 93.644,64.416 L93.059,62.235 C92.470,64.226 91.984,66.173 91.621,68.066 L138.677,68.066 C139.360,68.047 156.527,67.398 156.527,51.231 C156.527,38.158 145.733,33.809 141.016,32.533 C142.113,41.258 138.286,48.684 138.222,48.805 C137.733,49.729 136.590,50.081 135.667,49.590 C134.745,49.099 134.395,47.953 134.884,47.028 C135.261,46.308 143.545,30.024 128.592,18.996 C116.279,9.916 106.307,15.170 102.993,17.466 C103.863,19.221 104.928,22.219 104.200,25.463 C104.002,26.344 103.223,26.943 102.358,26.943 C102.221,26.943 102.082,26.928 101.942,26.896 C100.924,26.666 100.284,25.652 100.513,24.631 C101.251,21.343 99.023,18.115 99.000,18.084 C98.986,18.064 98.977,18.041 98.964,18.020 C98.952,18.003 98.936,17.988 98.924,17.970 C98.513,17.302 89.972,3.775 75.323,3.775 C72.887,3.775 70.283,4.149 67.518,5.018 C48.106,11.122 48.374,30.175 48.395,30.983 C48.421,32.014 47.621,32.880 46.594,32.929 C46.072,32.958 33.610,33.870 33.610,51.462 C33.610,56.087 35.061,59.815 37.924,62.542 C38.090,62.700 38.260,62.850 38.432,62.999 C45.043,57.653 54.237,53.203 66.999,51.404 L65.514,50.545 C64.609,50.022 64.299,48.863 64.821,47.957 C65.343,47.050 66.499,46.740 67.402,47.262 L73.842,50.988 C74.355,51.285 74.700,51.807 74.773,52.398 C74.845,52.988 74.637,53.578 74.211,53.992 L68.437,59.590 C68.070,59.946 67.596,60.123 67.124,60.123 C66.629,60.123 66.136,59.930 65.765,59.545 C65.039,58.793 65.060,57.593 65.810,56.866 L67.586,55.143 C57.143,56.599 48.486,59.959 41.674,65.178 C47.880,68.410 55.440,68.072 55.531,68.068 C55.563,68.067 55.596,68.066 55.628,68.066 L87.783,68.066 C88.214,65.663 88.817,63.189 89.590,60.646 L87.988,61.612 C87.093,62.152 85.932,61.861 85.395,60.965 C84.857,60.068 85.146,58.903 86.040,58.364 L92.412,54.522 ZM91.723,95.104 C87.783,88.460 86.289,80.671 87.233,71.856 L55.673,71.856 C55.540,71.862 55.220,71.873 54.749,71.873 C52.104,71.873 44.678,71.512 38.591,67.785 C34.911,71.214 31.876,75.287 29.505,80.002 C25.435,88.101 24.547,95.927 24.358,99.376 L94.734,99.376 C93.654,98.066 92.639,96.649 91.723,95.104 ZM117.927,103.166 L104.423,103.166 C109.680,106.869 115.095,108.754 117.927,109.563 L117.927,103.166 ZM117.927,131.003 L111.952,136.996 C111.583,137.366 111.099,137.551 110.616,137.551 C110.132,137.551 109.648,137.366 109.280,136.996 C108.541,136.256 108.541,135.056 109.279,134.316 L117.927,125.643 L117.927,118.387 L99.372,136.996 C99.003,137.366 98.519,137.551 98.036,137.551 C97.552,137.551 97.069,137.366 96.700,136.996 C95.962,136.256 95.962,135.056 96.699,134.316 L115.459,115.503 C116.133,114.826 117.187,114.776 117.927,115.336 L117.927,113.496 C114.639,112.667 105.777,109.933 98.344,103.166 L9.448,103.166 C6.323,103.166 3.779,105.717 3.779,108.852 L3.779,144.485 C3.779,147.620 6.323,150.170 9.448,150.170 L125.767,150.170 L125.767,141.536 C121.323,140.767 117.927,136.883 117.927,132.208 L117.927,131.003 ZM204.220,122.350 L204.220,117.938 L199.043,123.130 C198.675,123.500 198.191,123.685 197.707,123.685 C197.224,123.685 196.740,123.500 196.371,123.130 C195.633,122.390 195.633,121.189 196.371,120.450 L204.220,112.578 L204.220,104.093 L193.138,115.207 C192.769,115.577 192.286,115.762 191.802,115.762 C191.319,115.762 190.835,115.577 190.466,115.207 C189.728,114.467 189.728,113.267 190.466,112.527 L202.276,100.683 C202.802,100.155 203.560,100.011 204.220,100.236 L204.220,85.969 L127.376,85.969 C124.250,85.969 121.707,88.519 121.707,91.654 L121.707,132.208 C121.707,135.343 124.250,137.894 127.376,137.894 L212.272,137.894 L212.272,131.710 C207.724,131.030 204.220,127.098 204.220,122.350 ZM382.129,81.796 C382.129,78.661 379.586,76.111 376.460,76.111 L232.567,76.111 L213.669,76.111 C210.543,76.111 207.999,78.661 207.999,81.796 L207.999,122.350 C207.999,125.485 210.543,128.036 213.669,128.036 L232.567,128.036 L376.460,128.036 C379.586,128.036 382.129,125.485 382.129,122.350 L382.129,81.796 ZM401.028,122.350 L401.028,81.796 C401.028,78.661 398.484,76.111 395.359,76.111 L384.001,76.111 C385.193,77.697 385.908,79.662 385.908,81.796 L385.908,122.350 C385.908,124.485 385.193,126.450 384.001,128.036 L395.359,128.036 C398.484,128.036 401.028,125.485 401.028,122.350 ZM401.028,153.178 C401.028,150.043 398.484,147.492 395.359,147.492 L384.001,147.492 C385.193,149.078 385.908,151.043 385.908,153.178 L385.908,173.152 C388.705,173.331 394.335,173.932 401.028,175.921 L401.028,153.178 ZM401.028,179.885 C394.434,177.813 388.735,177.161 385.908,176.957 L385.908,193.732 C385.908,195.866 385.193,197.831 384.001,199.417 L395.359,199.417 C398.484,199.417 401.028,196.867 401.028,193.732 L401.028,179.885 ZM434.115,209.819 C429.005,196.347 419.142,186.724 404.807,181.208 L404.807,193.732 C404.807,198.308 401.556,202.136 397.248,203.016 L397.248,215.275 C401.556,216.155 404.807,219.983 404.807,224.559 L404.807,236.410 C411.500,235.365 420.704,236.279 430.928,243.994 C431.397,244.348 431.848,244.706 432.288,245.067 C437.886,233.235 438.509,221.404 434.115,209.819 ZM454.348,269.565 C450.414,267.054 446.424,265.775 444.114,265.187 C445.980,277.291 440.689,287.802 440.603,287.967 C440.122,288.897 438.981,289.257 438.055,288.777 C437.129,288.295 436.768,287.151 437.248,286.222 C437.715,285.313 447.204,266.281 433.324,251.229 C432.977,251.834 432.624,252.437 432.253,253.039 C427.363,260.985 421.684,266.641 418.791,269.261 L420.844,269.066 C421.886,268.961 422.805,269.730 422.904,270.772 C423.003,271.814 422.241,272.739 421.202,272.838 L413.801,273.545 C413.741,273.550 413.681,273.553 413.622,273.553 C413.094,273.553 412.587,273.332 412.227,272.937 C411.827,272.498 411.656,271.896 411.764,271.312 L413.234,263.393 C413.425,262.364 414.411,261.690 415.437,261.877 C416.463,262.068 417.140,263.058 416.949,264.087 L416.565,266.157 C419.379,263.559 424.643,258.216 429.097,250.951 C429.594,250.140 430.065,249.330 430.515,248.520 C429.926,248.014 429.308,247.515 428.656,247.023 C419.008,239.742 410.481,239.018 404.095,240.347 C403.771,240.608 403.365,240.771 402.917,240.771 C402.780,240.771 402.647,240.754 402.518,240.726 C398.122,241.929 394.917,244.022 393.301,245.254 C395.309,248.705 395.049,252.052 395.037,252.200 C394.951,253.187 394.125,253.931 393.156,253.931 C393.101,253.931 393.046,253.928 392.990,253.923 C391.954,253.833 391.187,252.921 391.270,251.883 C391.275,251.813 391.425,249.247 389.791,246.761 C389.677,246.587 389.603,246.399 389.552,246.207 C389.428,246.090 389.314,245.962 389.225,245.812 C389.185,245.746 385.087,239.015 377.745,233.477 C371.235,228.567 364.351,226.104 357.185,226.104 C353.717,226.104 350.185,226.680 346.595,227.835 C320.119,236.354 320.603,263.707 320.611,263.983 C320.641,265.015 319.841,265.881 318.813,265.930 C318.087,265.971 300.876,267.215 300.876,291.938 C300.876,298.548 302.939,303.865 307.007,307.744 C315.654,315.985 330.653,315.322 330.803,315.313 C330.834,315.311 330.868,315.311 330.900,315.311 L333.173,315.311 C333.272,315.303 333.370,315.303 333.468,315.311 L441.760,315.311 C442.713,315.285 466.221,314.395 466.221,291.622 C466.221,282.013 462.226,274.592 454.348,269.565 ZM354.479,113.469 C354.110,113.839 353.626,114.024 353.143,114.024 C352.659,114.024 352.176,113.839 351.807,113.469 C351.069,112.729 351.069,111.528 351.807,110.789 L363.617,98.944 C364.355,98.204 365.552,98.204 366.289,98.944 C367.027,99.684 367.027,100.885 366.289,101.624 L354.479,113.469 ZM340.667,113.271 C340.299,113.641 339.815,113.826 339.331,113.826 C338.848,113.826 338.364,113.641 337.995,113.271 C337.257,112.531 337.257,111.331 337.995,110.591 L358.572,89.956 C359.310,89.216 360.506,89.216 361.244,89.956 C361.982,90.697 361.982,91.897 361.244,92.636 L340.667,113.271 ZM326.705,113.271 C326.336,113.641 325.852,113.826 325.369,113.826 C324.885,113.826 324.402,113.641 324.033,113.271 C323.295,112.531 323.295,111.331 324.033,110.591 L344.609,89.956 C345.347,89.216 346.544,89.216 347.281,89.956 C348.019,90.696 348.019,91.897 347.281,92.636 L326.705,113.271 ZM312.907,113.271 C312.538,113.641 312.054,113.826 311.571,113.826 C311.087,113.826 310.603,113.641 310.234,113.271 C309.496,112.531 309.496,111.331 310.234,110.591 L330.811,89.956 C331.549,89.216 332.745,89.216 333.483,89.956 C334.221,90.696 334.221,91.897 333.483,92.636 L312.907,113.271 ZM299.062,113.271 C298.694,113.641 298.210,113.826 297.726,113.826 C297.242,113.826 296.759,113.641 296.390,113.271 C295.652,112.531 295.652,111.331 296.390,110.591 L316.966,89.956 C317.704,89.216 318.901,89.216 319.639,89.956 C320.377,90.696 320.377,91.897 319.638,92.636 L299.062,113.271 ZM285.336,113.271 C284.967,113.641 284.483,113.826 284.000,113.826 C283.516,113.826 283.033,113.641 282.663,113.271 C281.926,112.531 281.926,111.331 282.664,110.591 L303.240,89.956 C303.978,89.216 305.175,89.216 305.913,89.956 C306.651,90.697 306.651,91.897 305.912,92.636 L285.336,113.271 ZM279.431,105.349 C279.062,105.719 278.578,105.904 278.095,105.904 C277.611,105.904 277.127,105.719 276.759,105.349 C276.020,104.609 276.020,103.409 276.759,102.669 L288.569,90.825 C289.306,90.085 290.503,90.085 291.241,90.825 C291.979,91.565 291.979,92.765 291.241,93.505 L279.431,105.349 ZM246.510,115.655 C239.043,115.655 232.968,109.562 232.968,102.073 C232.968,94.584 239.043,88.492 246.510,88.492 C253.977,88.492 260.053,94.584 260.053,102.073 C260.053,109.562 253.977,115.655 246.510,115.655 ZM246.510,92.282 C241.127,92.282 236.747,96.674 236.747,102.073 C236.747,107.472 241.127,111.865 246.510,111.865 C251.894,111.865 256.273,107.472 256.273,102.073 C256.273,96.674 251.894,92.282 246.510,92.282 ZM160.217,125.513 C152.750,125.513 146.675,119.420 146.675,111.931 C146.675,104.442 152.750,98.350 160.217,98.350 C167.685,98.350 173.760,104.442 173.760,111.931 C173.760,119.420 167.685,125.513 160.217,125.513 ZM160.217,102.140 C154.834,102.140 150.454,106.532 150.454,111.931 C150.454,117.330 154.834,121.722 160.217,121.722 C165.601,121.722 169.981,117.330 169.981,111.931 C169.981,106.532 165.601,102.140 160.217,102.140 ZM85.414,137.551 C84.931,137.551 84.447,137.366 84.078,136.996 C83.340,136.256 83.340,135.056 84.078,134.316 L102.837,115.503 C103.575,114.763 104.772,114.763 105.509,115.503 C106.247,116.243 106.247,117.442 105.510,118.183 L86.751,136.996 C86.382,137.366 85.898,137.551 85.414,137.551 ZM74.236,136.996 C73.868,137.366 73.384,137.551 72.900,137.551 C72.417,137.551 71.933,137.366 71.564,136.996 C70.826,136.256 70.826,135.056 71.564,134.316 L90.323,115.503 C91.061,114.763 92.258,114.763 92.995,115.503 C93.734,116.243 93.734,117.443 92.996,118.183 L74.236,136.996 ZM68.853,129.773 C68.484,130.143 68.000,130.328 67.517,130.328 C67.033,130.328 66.550,130.143 66.181,129.773 C65.443,129.033 65.443,127.833 66.181,127.093 L76.948,116.295 C77.685,115.555 78.882,115.555 79.620,116.295 C80.358,117.035 80.358,118.235 79.620,118.975 L68.853,129.773 ZM38.722,139.217 C31.822,139.217 26.209,133.588 26.209,126.668 C26.209,119.748 31.822,114.119 38.722,114.119 C45.622,114.119 51.235,119.748 51.235,126.668 C51.235,133.588 45.622,139.217 38.722,139.217 ZM38.722,117.909 C33.906,117.909 29.988,121.838 29.988,126.668 C29.988,131.498 33.906,135.427 38.722,135.427 C43.538,135.427 47.456,131.498 47.456,126.668 C47.456,121.838 43.538,117.909 38.722,117.909 ZM38.722,178.094 C45.622,178.094 51.235,183.723 51.235,190.643 C51.235,197.563 45.622,203.192 38.722,203.192 C31.822,203.192 26.209,197.563 26.209,190.643 C26.209,183.723 31.822,178.094 38.722,178.094 ZM38.722,199.402 C43.538,199.402 47.456,195.473 47.456,190.643 C47.456,185.813 43.538,181.884 38.722,181.884 C33.906,181.884 29.988,185.813 29.988,190.643 C29.988,195.473 33.906,199.402 38.722,199.402 ZM76.948,179.761 C77.685,179.021 78.882,179.021 79.620,179.761 C80.358,180.501 80.358,181.701 79.620,182.441 L68.853,193.239 C68.484,193.609 68.000,193.794 67.517,193.794 C67.033,193.794 66.550,193.609 66.181,193.239 C65.443,192.499 65.443,191.299 66.181,190.559 L76.948,179.761 ZM90.323,178.969 C91.061,178.229 92.258,178.229 92.996,178.969 C93.734,179.709 93.734,180.909 92.995,181.649 L74.236,200.461 C73.868,200.832 73.384,201.017 72.900,201.017 C72.417,201.017 71.933,200.832 71.564,200.461 C70.826,199.722 70.826,198.521 71.564,197.782 L90.323,178.969 ZM102.837,178.969 C103.575,178.229 104.772,178.229 105.509,178.969 C106.247,179.709 106.247,180.909 105.509,181.649 L86.750,200.461 C86.382,200.832 85.898,201.017 85.414,201.017 C84.931,201.017 84.447,200.832 84.078,200.461 C83.340,199.722 83.340,198.521 84.078,197.782 L102.837,178.969 ZM38.722,242.068 C45.622,242.068 51.235,247.698 51.235,254.617 C51.235,261.537 45.622,267.167 38.722,267.167 C31.822,267.167 26.209,261.537 26.209,254.617 C26.209,247.698 31.822,242.068 38.722,242.068 ZM38.722,263.377 C43.538,263.377 47.456,259.447 47.456,254.617 C47.456,249.788 43.538,245.858 38.722,245.858 C33.906,245.858 29.988,249.788 29.988,254.617 C29.988,259.447 33.906,263.377 38.722,263.377 ZM76.948,244.244 C77.685,243.504 78.882,243.504 79.620,244.244 C80.358,244.984 80.358,246.185 79.620,246.924 L68.853,257.722 C68.484,258.092 68.000,258.277 67.517,258.277 C67.033,258.277 66.550,258.092 66.181,257.722 C65.443,256.982 65.443,255.782 66.181,255.042 L76.948,244.244 ZM90.323,243.452 C91.061,242.711 92.258,242.713 92.996,243.452 C93.734,244.192 93.734,245.392 92.995,246.132 L74.236,264.945 C73.868,265.315 73.384,265.500 72.900,265.500 C72.417,265.500 71.933,265.315 71.564,264.945 C70.826,264.205 70.826,263.005 71.564,262.265 L90.323,243.452 ZM102.837,243.452 C103.575,242.712 104.772,242.712 105.509,243.452 C106.247,244.192 106.247,245.392 105.509,246.132 L86.750,264.945 C86.382,265.315 85.898,265.500 85.414,265.500 C84.931,265.500 84.447,265.315 84.078,264.945 C83.340,264.205 83.340,263.005 84.078,262.265 L102.837,243.452 ZM38.722,306.158 C45.622,306.158 51.235,311.788 51.235,318.708 C51.235,325.627 45.622,331.257 38.722,331.257 C31.822,331.257 26.209,325.627 26.209,318.708 C26.209,311.788 31.822,306.158 38.722,306.158 ZM38.722,327.467 C43.538,327.467 47.456,323.537 47.456,318.708 C47.456,313.878 43.538,309.948 38.722,309.948 C33.906,309.948 29.988,313.878 29.988,318.708 C29.988,323.537 33.906,327.467 38.722,327.467 ZM76.948,308.335 C77.685,307.594 78.882,307.594 79.620,308.335 C80.358,309.074 80.358,310.275 79.620,311.014 L68.853,321.812 C68.484,322.183 68.000,322.368 67.517,322.368 C67.033,322.368 66.550,322.183 66.181,321.812 C65.443,321.073 65.443,319.872 66.181,319.133 L76.948,308.335 ZM90.323,307.543 C91.061,306.802 92.258,306.803 92.996,307.543 C93.734,308.282 93.734,309.483 92.995,310.222 L74.236,329.035 C73.868,329.405 73.384,329.590 72.900,329.590 C72.417,329.590 71.933,329.405 71.564,329.035 C70.826,328.295 70.826,327.095 71.564,326.355 L90.323,307.543 ZM102.837,307.543 C103.575,306.802 104.772,306.802 105.509,307.543 C106.247,308.282 106.247,309.483 105.509,310.222 L86.750,329.035 C86.382,329.405 85.898,329.590 85.414,329.590 C84.931,329.590 84.447,329.405 84.078,329.035 C83.340,328.295 83.340,327.095 84.078,326.355 L102.837,307.543 ZM160.217,302.666 C167.685,302.666 173.760,308.758 173.760,316.248 C173.760,323.736 167.685,329.829 160.217,329.829 C152.750,329.829 146.675,323.736 146.675,316.248 C146.675,308.758 152.750,302.666 160.217,302.666 ZM160.217,326.039 C165.601,326.039 169.981,321.647 169.981,316.248 C169.981,310.848 165.601,306.456 160.217,306.456 C154.834,306.456 150.454,310.848 150.454,316.248 C150.454,321.647 154.834,326.039 160.217,326.039 ZM160.217,235.391 C167.685,235.391 173.760,241.483 173.760,248.972 C173.760,256.461 167.685,262.554 160.217,262.554 C152.750,262.554 146.675,256.461 146.675,248.972 C146.675,241.483 152.750,235.391 160.217,235.391 ZM160.217,258.763 C165.601,258.763 169.981,254.371 169.981,248.972 C169.981,243.573 165.601,239.181 160.217,239.181 C154.834,239.181 150.454,243.573 150.454,248.972 C150.454,254.371 154.834,258.763 160.217,258.763 ZM160.217,193.857 C152.750,193.857 146.675,187.765 146.675,180.276 C146.675,172.787 152.750,166.694 160.217,166.694 C167.685,166.694 173.760,172.787 173.760,180.276 C173.760,187.765 167.685,193.857 160.217,193.857 ZM160.217,170.484 C154.834,170.484 150.454,174.877 150.454,180.276 C150.454,185.675 154.834,190.067 160.217,190.067 C165.601,190.067 169.981,185.675 169.981,180.276 C169.981,174.877 165.601,170.484 160.217,170.484 ZM354.479,185.211 C354.110,185.581 353.626,185.766 353.143,185.766 C352.659,185.766 352.176,185.581 351.807,185.211 C351.069,184.471 351.069,183.271 351.807,182.531 L363.617,170.687 C364.355,169.946 365.552,169.946 366.289,170.687 C367.027,171.426 367.027,172.627 366.289,173.366 L354.479,185.211 ZM340.667,185.013 C340.299,185.383 339.815,185.568 339.331,185.568 C338.848,185.568 338.364,185.383 337.995,185.013 C337.257,184.274 337.257,183.073 337.995,182.334 L358.572,161.698 C359.309,160.958 360.506,160.958 361.244,161.698 C361.982,162.438 361.982,163.638 361.244,164.378 L340.667,185.013 ZM326.705,185.013 C326.336,185.383 325.852,185.568 325.369,185.568 C324.885,185.568 324.402,185.383 324.033,185.013 C323.295,184.274 323.295,183.073 324.033,182.334 L344.609,161.698 C345.347,160.958 346.544,160.958 347.281,161.698 C348.019,162.438 348.019,163.638 347.281,164.378 L326.705,185.013 ZM312.907,185.013 C312.538,185.383 312.054,185.568 311.571,185.568 C311.087,185.568 310.603,185.383 310.234,185.013 C309.496,184.274 309.496,183.073 310.234,182.334 L330.811,161.698 C331.548,160.958 332.745,160.958 333.483,161.698 C334.221,162.438 334.221,163.638 333.483,164.378 L312.907,185.013 ZM299.062,185.013 C298.694,185.383 298.210,185.568 297.726,185.568 C297.243,185.568 296.759,185.383 296.390,185.013 C295.652,184.274 295.652,183.073 296.390,182.334 L316.966,161.698 C317.704,160.958 318.901,160.958 319.638,161.698 C320.377,162.438 320.377,163.638 319.639,164.378 L299.062,185.013 ZM285.336,185.013 C284.967,185.383 284.483,185.568 284.000,185.568 C283.516,185.568 283.033,185.383 282.664,185.013 C281.926,184.274 281.926,183.073 282.664,182.334 L303.240,161.698 C303.978,160.958 305.175,160.958 305.912,161.698 C306.651,162.438 306.651,163.638 305.912,164.378 L285.336,185.013 ZM279.431,177.091 C279.062,177.461 278.578,177.646 278.095,177.646 C277.611,177.646 277.127,177.461 276.759,177.091 C276.020,176.351 276.020,175.150 276.759,174.411 L288.569,162.567 C289.306,161.826 290.503,161.826 291.241,162.567 C291.979,163.306 291.979,164.507 291.241,165.246 L279.431,177.091 ZM246.510,187.036 C239.043,187.036 232.968,180.944 232.968,173.455 C232.968,165.966 239.043,159.873 246.510,159.873 C253.977,159.873 260.053,165.966 260.053,173.455 C260.053,180.944 253.977,187.036 246.510,187.036 ZM246.510,163.663 C241.127,163.663 236.747,168.056 236.747,173.455 C236.747,178.854 241.127,183.246 246.510,183.246 C251.894,183.246 256.273,178.854 256.273,173.455 C256.273,168.056 251.894,163.663 246.510,163.663 ZM297.726,257.048 C297.243,257.048 296.759,256.863 296.390,256.493 C295.652,255.754 295.652,254.553 296.390,253.814 L316.966,233.178 C317.704,232.438 318.901,232.438 319.638,233.178 C320.377,233.918 320.377,235.118 319.639,235.858 L299.062,256.493 C298.694,256.863 298.210,257.048 297.726,257.048 ZM285.336,256.493 C284.967,256.863 284.483,257.048 284.000,257.048 C283.516,257.048 283.033,256.863 282.664,256.493 C281.926,255.754 281.926,254.553 282.664,253.814 L303.240,233.178 C303.978,232.438 305.175,232.438 305.912,233.178 C306.651,233.918 306.651,235.118 305.912,235.858 L285.336,256.493 ZM279.431,248.571 C279.062,248.941 278.578,249.126 278.095,249.126 C277.611,249.126 277.127,248.941 276.759,248.571 C276.020,247.831 276.020,246.630 276.759,245.891 L288.569,234.047 C289.306,233.306 290.503,233.306 291.241,234.047 C291.979,234.786 291.979,235.987 291.241,236.726 L279.431,248.571 ZM246.510,258.417 C239.043,258.417 232.968,252.325 232.968,244.836 C232.968,237.347 239.043,231.255 246.510,231.255 C253.977,231.255 260.053,237.347 260.053,244.836 C260.053,252.325 253.977,258.417 246.510,258.417 ZM246.510,235.045 C241.127,235.045 236.747,239.437 236.747,244.836 C236.747,250.235 241.127,254.627 246.510,254.627 C251.894,254.627 256.273,250.235 256.273,244.836 C256.273,239.437 251.894,235.045 246.510,235.045 ZM246.510,302.636 C253.977,302.636 260.053,308.728 260.053,316.217 C260.053,323.706 253.977,329.799 246.510,329.799 C239.043,329.799 232.968,323.706 232.968,316.217 C232.968,308.728 239.043,302.636 246.510,302.636 ZM246.510,326.009 C251.894,326.009 256.273,321.616 256.273,316.217 C256.273,310.818 251.894,306.426 246.510,306.426 C241.127,306.426 236.747,310.818 236.747,316.217 C236.747,321.616 241.127,326.009 246.510,326.009 ZM288.569,304.060 C289.306,303.319 290.503,303.319 291.241,304.060 C291.979,304.799 291.979,306.000 291.241,306.739 L279.431,318.584 C279.062,318.954 278.578,319.139 278.095,319.139 C277.611,319.139 277.127,318.954 276.759,318.584 C276.020,317.844 276.020,316.644 276.759,315.904 L288.569,304.060 Z"/>
</svg>