<svg 
 xmlns="http://www.w3.org/2000/svg"
 xmlns:xlink="http://www.w3.org/1999/xlink"
 width="25px" height="20px">
<path fill-rule="evenodd"  fill="rgb(255, 255, 255)"
 d="M24.168,2.432 C23.791,2.599 23.403,2.740 23.006,2.855 C23.476,2.324 23.833,1.699 24.052,1.015 C24.101,0.862 24.050,0.694 23.924,0.594 C23.798,0.494 23.624,0.482 23.485,0.564 C22.644,1.063 21.735,1.423 20.783,1.632 C19.824,0.694 18.521,0.161 17.174,0.161 C14.331,0.161 12.018,2.475 12.018,5.320 C12.018,5.544 12.032,5.767 12.060,5.987 C8.532,5.677 5.252,3.942 3.000,1.177 C2.920,1.078 2.796,1.025 2.669,1.035 C2.543,1.045 2.429,1.117 2.365,1.227 C1.908,2.011 1.667,2.908 1.667,3.821 C1.667,5.064 2.110,6.244 2.894,7.166 C2.655,7.083 2.424,6.980 2.204,6.857 C2.085,6.791 1.940,6.792 1.823,6.860 C1.705,6.927 1.631,7.052 1.628,7.187 C1.628,7.210 1.628,7.233 1.628,7.256 C1.628,9.112 2.626,10.783 4.152,11.693 C4.021,11.680 3.890,11.661 3.759,11.637 C3.625,11.611 3.487,11.658 3.397,11.760 C3.306,11.863 3.276,12.005 3.318,12.136 C3.883,13.900 5.337,15.198 7.095,15.594 C5.637,16.508 3.969,16.987 2.219,16.987 C1.854,16.987 1.486,16.965 1.127,16.923 C0.948,16.901 0.778,17.007 0.717,17.177 C0.656,17.347 0.720,17.536 0.872,17.634 C3.121,19.077 5.721,19.839 8.391,19.839 C13.641,19.839 16.925,17.362 18.755,15.284 C21.038,12.693 22.347,9.263 22.347,5.874 C22.347,5.732 22.345,5.589 22.340,5.447 C23.241,4.768 24.016,3.946 24.647,3.002 C24.743,2.858 24.732,2.669 24.621,2.537 C24.511,2.404 24.326,2.362 24.168,2.432 Z"/>
</svg>