<svg 
 xmlns="http://www.w3.org/2000/svg"
 xmlns:xlink="http://www.w3.org/1999/xlink"
 width="120px" height="36px">
<path fill-rule="evenodd"  fill="rgb(255, 255, 255)"
 d="M115.943,5.989 C116.145,6.450 116.258,6.959 116.258,7.494 C116.258,8.169 116.079,8.803 115.766,9.351 C120.317,14.243 120.401,19.143 119.637,22.441 C118.788,26.108 116.759,28.560 116.673,28.662 L116.663,28.654 C115.975,29.473 114.944,29.995 113.794,29.995 C113.119,29.995 112.486,29.814 111.939,29.501 C109.790,31.507 107.367,33.054 104.725,34.105 C102.405,35.027 99.915,35.569 97.325,35.715 C96.828,35.743 96.347,35.756 95.884,35.756 C93.129,35.756 91.027,35.313 90.115,35.082 C89.547,35.429 88.879,35.630 88.166,35.630 C86.098,35.630 84.415,33.945 84.415,31.874 C84.415,31.026 84.698,30.242 85.173,29.613 C84.889,28.422 84.413,25.856 84.595,22.617 C84.742,20.023 85.283,17.529 86.203,15.206 C87.251,12.562 88.793,10.138 90.794,7.988 C90.480,7.440 90.300,6.806 90.300,6.130 C90.300,5.062 90.748,4.099 91.463,3.414 C91.463,3.414 91.464,3.414 91.464,3.414 C91.692,3.196 91.947,3.006 92.224,2.851 C93.229,2.165 95.167,1.028 97.675,0.445 C100.947,-0.315 105.796,-0.237 110.649,4.234 C111.198,3.919 111.832,3.738 112.508,3.738 C113.255,3.738 113.951,3.959 114.536,4.337 C114.830,4.267 115.279,4.123 115.715,3.839 C116.632,3.240 117.078,2.314 117.078,1.008 C117.078,0.451 117.529,-0.000 118.085,-0.000 C118.640,-0.000 119.091,0.451 119.091,1.008 C119.091,3.569 117.804,4.910 116.725,5.584 C116.459,5.750 116.194,5.883 115.943,5.989 ZM113.794,27.979 C114.753,27.979 115.532,27.198 115.532,26.238 C115.532,25.279 114.753,24.498 113.794,24.498 C112.836,24.498 112.056,25.279 112.056,26.238 C112.056,27.198 112.836,27.979 113.794,27.979 ZM88.166,33.614 C89.124,33.614 89.904,32.834 89.904,31.874 C89.904,30.914 89.124,30.133 88.166,30.133 C87.207,30.133 86.428,30.914 86.428,31.874 C86.428,32.834 87.207,33.614 88.166,33.614 ZM94.051,4.389 C93.773,4.389 93.511,4.455 93.278,4.571 C93.031,4.742 92.868,4.869 92.798,4.925 C92.498,5.238 92.313,5.662 92.313,6.130 C92.313,7.089 93.092,7.870 94.051,7.870 C95.009,7.870 95.789,7.089 95.789,6.130 C95.789,5.170 95.009,4.389 94.051,4.389 ZM94.051,9.886 C93.388,9.886 92.766,9.712 92.225,9.409 C90.417,11.363 89.021,13.559 88.074,15.949 C87.233,18.071 86.739,20.353 86.605,22.731 C86.471,25.098 86.723,27.076 86.956,28.319 C87.336,28.189 87.743,28.117 88.166,28.117 C90.234,28.117 91.916,29.802 91.916,31.874 C91.916,32.396 91.809,32.893 91.616,33.346 C92.873,33.584 94.892,33.842 97.288,33.698 C99.651,33.557 101.919,33.057 104.027,32.214 C106.399,31.264 108.579,29.870 110.520,28.067 C110.217,27.526 110.044,26.902 110.044,26.238 C110.044,25.509 110.253,24.829 110.613,24.252 C109.671,21.767 108.345,19.458 106.665,17.381 C105.227,15.602 103.526,13.987 101.612,12.580 C99.335,10.908 97.134,9.833 95.958,9.362 C95.399,9.694 94.747,9.886 94.051,9.886 ZM112.508,5.754 C111.549,5.754 110.770,6.534 110.770,7.494 C110.770,8.454 111.549,9.235 112.508,9.235 C113.466,9.235 114.246,8.454 114.246,7.494 C114.246,6.534 113.466,5.754 112.508,5.754 ZM114.336,10.772 C113.795,11.076 113.171,11.251 112.508,11.251 C110.440,11.251 108.757,9.565 108.757,7.494 C108.757,6.831 108.930,6.209 109.232,5.667 C107.449,4.037 105.546,2.953 103.566,2.442 C101.814,1.989 99.985,1.978 98.130,2.409 C97.419,2.574 96.760,2.791 96.164,3.028 C97.152,3.706 97.801,4.843 97.801,6.130 C97.801,6.727 97.661,7.292 97.412,7.793 C98.623,8.334 100.574,9.327 102.740,10.910 C104.806,12.419 106.642,14.157 108.199,16.075 C109.867,18.131 111.214,20.400 112.215,22.833 C112.695,22.608 113.230,22.482 113.794,22.482 C115.118,22.482 116.282,23.173 116.950,24.212 C117.238,23.528 117.503,22.755 117.693,21.913 C118.598,17.901 117.468,14.157 114.336,10.772 ZM66.851,26.670 L57.324,26.670 C55.821,26.670 53.984,26.448 52.462,24.928 C50.997,26.448 49.346,26.670 48.008,26.670 L45.044,26.670 C43.929,26.670 42.984,26.495 42.156,26.136 C41.504,25.853 40.915,25.449 40.395,24.929 C39.247,26.073 37.658,26.670 35.728,26.670 L27.471,26.670 C26.931,26.670 26.487,26.243 26.466,25.702 L26.254,20.401 C26.243,20.127 26.344,19.860 26.534,19.663 C26.724,19.465 26.986,19.353 27.259,19.353 L35.093,19.353 C35.725,19.353 35.930,19.212 35.965,19.183 C35.980,19.171 35.993,19.160 35.993,19.088 C35.993,18.584 35.543,17.137 32.879,9.895 C32.691,9.385 32.940,8.819 33.442,8.613 L38.100,6.705 C38.354,6.601 38.639,6.605 38.890,6.717 C39.140,6.829 39.335,7.038 39.428,7.296 L43.237,17.894 C43.708,19.162 43.945,19.353 45.044,19.353 L48.008,19.353 C48.456,19.353 48.776,19.279 48.911,19.145 C49.045,19.010 49.119,18.689 49.119,18.240 L49.119,14.211 C49.119,13.655 49.569,13.204 50.125,13.204 L54.995,13.204 C55.550,13.204 56.001,13.655 56.001,14.211 L56.001,18.240 C56.001,19.353 57.037,19.353 57.535,19.353 L59.864,19.353 C60.220,19.353 60.532,19.357 60.813,19.368 C60.277,18.220 60.128,16.865 60.128,15.272 C60.128,13.554 60.800,11.813 61.970,10.494 C62.934,9.408 64.673,8.114 67.486,8.114 C69.944,8.114 71.778,8.751 73.092,10.062 C74.556,11.521 75.268,13.711 75.268,16.756 L75.268,18.876 C75.268,21.325 74.558,23.246 73.157,24.588 C71.715,25.969 69.593,26.670 66.851,26.670 ZM73.255,16.756 C73.255,14.309 72.723,12.537 71.672,11.490 C70.754,10.575 69.385,10.130 67.486,10.130 C65.419,10.130 64.164,11.056 63.474,11.833 C62.639,12.774 62.141,14.059 62.141,15.272 C62.141,18.052 62.620,19.188 64.193,20.133 C64.637,20.400 64.807,20.962 64.583,21.430 C64.361,21.899 63.818,22.122 63.331,21.944 C62.079,21.488 61.676,21.369 59.864,21.369 L57.535,21.369 C55.348,21.369 53.989,20.170 53.989,18.240 L53.989,15.219 L51.131,15.219 L51.131,18.240 C51.131,20.287 50.051,21.369 48.008,21.369 L45.044,21.369 C42.815,21.369 42.001,20.350 41.349,18.591 C41.348,18.588 41.346,18.585 41.345,18.582 L37.890,8.969 L35.102,10.111 C37.860,17.627 38.005,18.310 38.005,19.088 C38.005,20.191 37.240,21.369 35.093,21.369 L28.307,21.369 L28.438,24.654 L35.728,24.654 C37.508,24.654 38.753,24.046 39.533,22.795 C39.714,22.505 40.030,22.327 40.372,22.322 C40.716,22.318 41.034,22.486 41.224,22.770 C42.103,24.091 43.245,24.654 45.044,24.654 L48.008,24.654 C49.462,24.654 50.573,24.339 51.617,22.770 C51.803,22.490 52.118,22.322 52.454,22.322 C52.790,22.322 53.105,22.490 53.291,22.770 C54.332,24.334 55.656,24.654 57.324,24.654 L66.851,24.654 C71.160,24.654 73.255,22.764 73.255,18.876 L73.255,16.756 ZM68.227,18.779 C67.033,18.779 66.201,18.554 65.607,18.071 C64.983,17.563 64.680,16.827 64.680,15.821 C64.680,14.021 65.785,12.947 67.634,12.947 C68.228,12.947 69.086,13.023 69.672,13.682 C70.221,14.300 70.292,15.172 70.292,15.863 L70.292,17.772 C70.292,18.328 69.841,18.779 69.286,18.779 L68.227,18.779 ZM68.279,15.863 C68.279,15.248 68.193,15.063 68.172,15.028 C68.142,15.013 68.013,14.962 67.634,14.962 C67.265,14.962 66.993,15.029 66.868,15.151 C66.715,15.298 66.693,15.634 66.693,15.821 C66.693,16.357 66.832,16.470 66.877,16.507 C66.995,16.603 67.327,16.764 68.227,16.764 L68.279,16.764 L68.279,15.863 ZM67.486,7.481 C65.427,7.481 63.752,5.803 63.752,3.740 C63.752,1.678 65.427,-0.000 67.486,-0.000 C69.545,-0.000 71.221,1.678 71.221,3.740 C71.221,5.803 69.545,7.481 67.486,7.481 ZM67.486,2.016 C66.537,2.016 65.764,2.789 65.764,3.740 C65.764,4.691 66.537,5.465 67.486,5.465 C68.436,5.465 69.208,4.691 69.208,3.740 C69.208,2.789 68.436,2.016 67.486,2.016 ZM47.252,9.386 C45.192,9.386 43.517,7.708 43.517,5.646 C43.517,3.583 45.192,1.906 47.252,1.906 C49.311,1.906 50.986,3.583 50.986,5.646 C50.986,7.708 49.311,9.386 47.252,9.386 ZM47.252,3.921 C46.302,3.921 45.530,4.695 45.530,5.646 C45.530,6.597 46.302,7.370 47.252,7.370 C48.201,7.370 48.974,6.597 48.974,5.646 C48.974,4.695 48.201,3.921 47.252,3.921 ZM19.166,35.102 C17.824,35.698 16.345,36.000 14.768,36.000 L10.110,36.000 C3.874,36.000 0.000,31.795 0.000,25.026 L0.000,18.028 C0.000,17.472 0.451,17.020 1.006,17.020 L5.876,17.020 C6.432,17.020 6.882,17.472 6.882,18.028 L6.882,24.814 C6.882,26.174 7.130,27.119 7.639,27.702 C8.216,28.362 9.232,28.683 10.746,28.683 L14.557,28.683 C15.915,28.683 16.932,28.379 17.578,27.780 C17.893,27.488 18.132,27.121 18.300,26.670 L17.733,26.670 C14.847,26.670 12.934,26.022 11.711,24.632 C10.640,23.415 10.163,21.705 10.163,19.088 C10.163,16.800 10.838,14.718 12.065,13.226 C13.446,11.547 15.435,10.659 17.817,10.659 C19.981,10.659 21.809,11.382 23.105,12.749 C24.563,14.288 25.302,16.564 25.302,19.513 L25.302,25.026 C25.302,27.944 24.309,30.659 22.504,32.671 C21.565,33.717 20.442,34.535 19.166,35.102 ZM23.290,19.513 C23.290,17.097 22.736,15.288 21.645,14.136 C20.726,13.166 19.438,12.675 17.817,12.675 C16.031,12.675 14.618,13.291 13.618,14.507 C12.688,15.639 12.175,17.266 12.175,19.088 C12.175,21.179 12.498,22.477 13.221,23.299 C13.516,23.635 14.413,24.654 17.733,24.654 L19.553,24.654 C19.840,24.654 20.113,24.777 20.304,24.991 C20.495,25.205 20.586,25.490 20.553,25.775 C20.386,27.253 19.845,28.425 18.945,29.259 C17.915,30.214 16.438,30.699 14.557,30.699 L10.746,30.699 C8.618,30.699 7.106,30.153 6.124,29.029 C5.268,28.049 4.870,26.710 4.870,24.814 L4.870,19.036 L2.012,19.036 L2.012,25.026 C2.012,27.801 2.755,30.088 4.160,31.638 C5.551,33.173 7.609,33.984 10.110,33.984 L14.768,33.984 C17.288,33.984 19.445,33.064 21.007,31.323 C22.479,29.683 23.290,27.446 23.290,25.026 L23.290,19.513 ZM19.638,21.369 L17.733,21.369 C17.043,21.369 16.172,21.298 15.555,20.747 C14.897,20.161 14.821,19.302 14.821,18.707 C14.821,16.854 15.894,15.748 17.690,15.748 C18.695,15.748 19.430,16.052 19.937,16.677 C20.420,17.271 20.644,18.105 20.644,19.300 L20.644,20.361 C20.644,20.917 20.194,21.369 19.638,21.369 ZM18.632,19.300 C18.632,18.398 18.472,18.066 18.376,17.948 C18.339,17.903 18.226,17.764 17.690,17.764 C17.504,17.764 17.169,17.787 17.021,17.939 C16.900,18.065 16.833,18.337 16.833,18.707 C16.833,19.086 16.884,19.216 16.898,19.245 C16.934,19.266 17.118,19.353 17.733,19.353 L18.632,19.353 L18.632,19.300 ZM20.836,9.386 C19.760,9.386 18.790,8.928 18.108,8.196 C17.426,8.928 16.455,9.386 15.379,9.386 C13.320,9.386 11.645,7.708 11.645,5.646 C11.645,3.583 13.320,1.906 15.379,1.906 C16.455,1.906 17.426,2.364 18.108,3.096 C18.790,2.364 19.760,1.906 20.836,1.906 C22.895,1.906 24.571,3.583 24.571,5.646 C24.571,7.708 22.895,9.386 20.836,9.386 ZM15.379,3.921 C14.430,3.921 13.657,4.695 13.657,5.646 C13.657,6.597 14.430,7.370 15.379,7.370 C16.329,7.370 17.101,6.597 17.101,5.646 C17.101,4.695 16.329,3.921 15.379,3.921 ZM20.836,3.921 C19.887,3.921 19.114,4.695 19.114,5.646 C19.114,6.597 19.887,7.370 20.836,7.370 C21.786,7.370 22.558,6.597 22.558,5.646 C22.558,4.695 21.786,3.921 20.836,3.921 Z"/>
</svg>