<svg 
 xmlns="http://www.w3.org/2000/svg"
 xmlns:xlink="http://www.w3.org/1999/xlink"
 width="24px" height="21px">
<path fill-rule="evenodd"  fill="rgb(255, 255, 255)"
 d="M23.979,11.652 C23.979,13.638 23.686,15.226 23.101,16.416 C22.736,17.155 22.230,17.793 21.582,18.331 C20.934,18.868 20.257,19.281 19.552,19.569 C18.846,19.857 18.030,20.085 17.104,20.253 C16.178,20.420 15.355,20.526 14.635,20.569 C13.914,20.612 13.113,20.634 12.230,20.634 C11.481,20.634 10.800,20.619 10.186,20.591 C9.572,20.562 8.864,20.502 8.062,20.410 C7.261,20.320 6.529,20.175 5.867,19.979 C5.204,19.782 4.547,19.535 3.894,19.238 C3.241,18.940 2.660,18.551 2.152,18.072 C1.643,17.592 1.231,17.040 0.914,16.416 C0.318,15.236 0.021,13.648 0.021,11.652 C0.021,9.377 0.674,7.477 1.979,5.951 C1.720,5.165 1.590,4.349 1.590,3.504 C1.590,2.391 1.835,1.345 2.325,0.366 C3.361,0.366 4.273,0.556 5.060,0.935 C5.847,1.314 6.754,1.907 7.781,2.713 C9.192,2.377 10.675,2.209 12.230,2.209 C13.651,2.209 14.995,2.362 16.262,2.669 C17.269,1.882 18.167,1.302 18.954,0.928 C19.741,0.554 20.648,0.366 21.675,0.366 C22.164,1.345 22.409,2.391 22.409,3.504 C22.409,4.339 22.280,5.145 22.020,5.923 C23.326,7.458 23.979,9.368 23.979,11.652 ZM19.760,11.248 C19.098,10.442 18.201,10.039 17.068,10.039 C16.674,10.039 15.739,10.140 14.260,10.341 C13.579,10.447 12.825,10.500 12.000,10.500 C11.174,10.500 10.421,10.447 9.739,10.341 C8.281,10.140 7.345,10.039 6.932,10.039 C5.799,10.039 4.902,10.442 4.240,11.248 C3.577,12.054 3.246,13.033 3.246,14.185 C3.246,15.029 3.400,15.766 3.707,16.394 C4.014,17.023 4.402,17.517 4.873,17.877 C5.343,18.237 5.929,18.525 6.629,18.741 C7.330,18.957 8.002,19.098 8.645,19.165 C9.288,19.233 10.003,19.266 10.790,19.266 L13.209,19.266 C13.997,19.266 14.711,19.233 15.355,19.165 C15.998,19.098 16.669,18.957 17.370,18.741 C18.071,18.525 18.656,18.237 19.127,17.877 C19.597,17.517 19.986,17.023 20.293,16.394 C20.600,15.766 20.754,15.029 20.754,14.185 C20.754,13.033 20.423,12.054 19.760,11.248 ZM17.651,16.459 C17.358,16.785 17.010,16.949 16.607,16.949 C16.204,16.949 15.856,16.785 15.563,16.459 C15.271,16.133 15.064,15.768 14.945,15.365 C14.824,14.962 14.764,14.569 14.764,14.185 C14.764,13.801 14.824,13.407 14.945,13.004 C15.064,12.601 15.271,12.237 15.563,11.911 C15.856,11.584 16.204,11.421 16.607,11.421 C17.010,11.421 17.358,11.584 17.651,11.911 C17.943,12.237 18.150,12.602 18.270,13.004 C18.390,13.407 18.450,13.801 18.450,14.185 C18.450,14.569 18.390,14.962 18.270,15.365 C18.150,15.768 17.943,16.133 17.651,16.459 ZM8.436,16.459 C8.144,16.785 7.796,16.949 7.392,16.949 C6.989,16.949 6.641,16.785 6.349,16.459 C6.056,16.133 5.849,15.768 5.730,15.365 C5.609,14.962 5.549,14.569 5.549,14.185 C5.549,13.801 5.609,13.407 5.730,13.004 C5.849,12.601 6.056,12.237 6.349,11.911 C6.641,11.584 6.989,11.421 7.392,11.421 C7.796,11.421 8.144,11.584 8.436,11.911 C8.729,12.237 8.935,12.602 9.055,13.004 C9.175,13.407 9.235,13.801 9.235,14.185 C9.235,14.569 9.175,14.962 9.055,15.365 C8.935,15.768 8.729,16.133 8.436,16.459 Z"/>
</svg>